<svg width="12" height="12" viewBox="0 0 12 12" fill="none" xmlns="http://www.w3.org/2000/svg">
<path fill-rule="evenodd" clip-rule="evenodd" d="M6.85714 2.57143C6.85714 3.25341 6.58623 3.90747 6.10399 4.3897C5.62175 4.87194 4.9677 5.14286 4.28571 5.14286C3.60373 5.14286 2.94968 4.87194 2.46744 4.3897C1.9852 3.90747 1.71429 3.25341 1.71429 2.57143C1.71429 1.88944 1.9852 1.23539 2.46744 0.753154C2.94968 0.270918 3.60373 0 4.28571 0C4.9677 0 5.62175 0.270918 6.10399 0.753154C6.58623 1.23539 6.85714 1.88944 6.85714 2.57143ZM8.06229 5.57143C7.94862 5.57143 7.83961 5.61658 7.75924 5.69695C7.67887 5.77733 7.63371 5.88634 7.63371 6V7.63371H6C5.88634 7.63371 5.77733 7.67887 5.69695 7.75924C5.61658 7.83961 5.57143 7.94862 5.57143 8.06229V9.45514C5.57143 9.56881 5.61658 9.67782 5.69695 9.75819C5.77733 9.83856 5.88634 9.88371 6 9.88371H7.63371V11.5714C7.63371 11.6851 7.67887 11.7941 7.75924 11.8745C7.83961 11.9548 7.94862 12 8.06229 12H9.45514C9.56881 12 9.67782 11.9548 9.75819 11.8745C9.83856 11.7941 9.88371 11.6851 9.88371 11.5714V9.88371H11.5714C11.6851 9.88371 11.7941 9.83856 11.8745 9.75819C11.9548 9.67782 12 9.56881 12 9.45514V8.06229C12 7.94862 11.9548 7.83961 11.8745 7.75924C11.7941 7.67887 11.6851 7.63371 11.5714 7.63371H9.88371V6C9.88371 5.88634 9.83856 5.77733 9.75819 5.69695C9.67782 5.61658 9.56881 5.57143 9.45514 5.57143H8.06229ZM4.28571 6C5.03065 5.99888 5.76291 6.19273 6.40971 6.56229H6C5.60218 6.56229 5.22064 6.72032 4.93934 7.00163C4.65804 7.28293 4.5 7.66446 4.5 8.06229V9.45514C4.5 9.98314 4.77257 10.4469 5.184 10.7143H0.428571C0.314907 10.7143 0.205898 10.6691 0.125526 10.5888C0.0451529 10.5084 0 10.3994 0 10.2857C0 9.14907 0.451529 8.05898 1.25526 7.25526C2.05898 6.45153 3.14907 6 4.28571 6Z" fill="#037098"/>
</svg>
