<svg width="28" height="36" viewBox="0 0 28 36" fill="none" xmlns="http://www.w3.org/2000/svg">
<path d="M26.2222 6.88883H4.95552C4.67197 6.88482 4.39217 6.82341 4.13299 6.70832C3.87381 6.59322 3.64063 6.42683 3.44751 6.21917C3.25439 6.01151 3.10533 5.76689 3.00931 5.50006C2.9133 5.23323 2.87232 4.94971 2.88885 4.66661C2.88747 4.10323 3.10013 3.56035 3.4838 3.1478C3.86747 2.73525 4.39352 2.48383 4.95552 2.44439H26.2222C26.5169 2.44439 26.7995 2.32733 27.0079 2.11895C27.2162 1.91058 27.3333 1.62796 27.3333 1.33328C27.3333 1.03859 27.2162 0.755979 27.0079 0.547605C26.7995 0.339231 26.5169 0.222168 26.2222 0.222168H4.95552C3.80395 0.262497 2.71305 0.748495 1.91291 1.57766C1.11277 2.40682 0.665925 3.51434 0.666631 4.66661C0.655882 4.84793 0.655882 5.02973 0.666631 5.21106C0.655926 5.29962 0.655926 5.38916 0.666631 5.47772V31.3333C0.665925 32.4856 1.11277 33.5931 1.91291 34.4222C2.71305 35.2514 3.80395 35.7374 4.95552 35.7777H26.2222C26.5169 35.7777 26.7995 35.6607 27.0079 35.4523C27.2162 35.2439 27.3333 34.9613 27.3333 34.6666V8.07772C27.3339 7.77543 27.2194 7.48425 27.013 7.2634C26.8066 7.04254 26.5238 6.90861 26.2222 6.88883ZM25.1111 33.5555H4.95552C4.39352 33.5161 3.86747 33.2646 3.4838 32.8521C3.10013 32.4395 2.88747 31.8967 2.88885 31.3333V8.61106C3.52062 8.95958 4.23431 9.13224 4.95552 9.11106H25.1111V33.5555Z" fill="white"/>
</svg>
