<svg width="40" height="40" viewBox="0 0 40 40" fill="none" xmlns="http://www.w3.org/2000/svg">
<path d="M13.974 4.13234L12.54 4.56434C11.2632 4.9494 10.1229 5.6912 9.25338 6.70242C8.38389 7.71364 7.82136 8.95221 7.632 10.2723C7.038 14.4083 8.366 19.2443 11.568 24.7903C14.762 30.3223 18.278 33.8863 22.148 35.4463C23.3915 35.9475 24.7527 36.081 26.0698 35.8311C27.3869 35.5811 28.6046 34.9582 29.578 34.0363L30.662 33.0083C31.3659 32.3422 31.804 31.4431 31.8948 30.4782C31.9857 29.5133 31.7232 28.5482 31.156 27.7623L28.444 24.0023C28.0773 23.4947 27.561 23.1146 26.9675 22.9152C26.3739 22.7157 25.7328 22.7071 25.134 22.8903L21.032 24.1443L20.926 24.1643C20.474 24.2303 19.43 23.2523 18.13 21.0003C16.77 18.6443 16.49 17.2663 16.864 16.9103L18.95 14.9643C19.7128 14.2533 20.2339 13.3212 20.4402 12.299C20.6464 11.2767 20.5275 10.2156 20.1 9.26434L18.776 6.32234C18.3779 5.43703 17.6714 4.7267 16.7883 4.32377C15.9051 3.92084 14.9036 3.8528 13.974 4.13234ZM16.956 7.14234L18.276 10.0843C18.5331 10.6548 18.605 11.2915 18.4816 11.9049C18.3582 12.5183 18.0457 13.0777 17.588 13.5043L15.496 15.4523C14.156 16.7203 14.6 18.8843 16.4 22.0003C18.092 24.9323 19.636 26.3803 21.296 26.1283L21.544 26.0763L25.72 24.8023C25.9196 24.741 26.1334 24.7437 26.3314 24.8101C26.5294 24.8765 26.7017 25.0031 26.824 25.1723L29.536 28.9323C29.82 29.3252 29.9516 29.8079 29.9063 30.2906C29.8611 30.7733 29.6421 31.2231 29.29 31.5563L28.204 32.5843C27.5087 33.2424 26.6391 33.687 25.6985 33.8653C24.7579 34.0437 23.7859 33.9482 22.898 33.5903C19.502 32.2223 16.292 28.9683 13.302 23.7903C10.304 18.6003 9.09 14.1863 9.612 10.5563C9.74713 9.6132 10.1489 8.7283 10.77 8.00583C11.3912 7.28336 12.2058 6.7534 13.118 6.47834L14.552 6.04634C15.0169 5.90664 15.5168 5.9408 15.9584 6.14246C16.3999 6.34412 16.7531 6.6995 16.952 7.14234" fill="white"/>
</svg>
