<svg width="263" height="160" viewBox="0 0 263 160" fill="none" xmlns="http://www.w3.org/2000/svg">
<circle cx="132" cy="80" r="80" fill="#F0EFFF"/>
<path d="M94.1398 27.2238L96.0017 28.0004L96.7779 29.8622C96.7986 29.9038 96.8306 29.9388 96.8701 29.9633C96.9096 29.9878 96.9552 30.0007 97.0017 30.0007C97.0481 30.0007 97.0937 29.9878 97.1332 29.9633C97.1728 29.9388 97.2047 29.9038 97.2254 29.8622L98.0017 28.0004L99.8635 27.2238C99.9051 27.203 99.94 27.1711 99.9644 27.1316C99.9888 27.0921 100.002 27.0466 100.002 27.0002C100.002 26.9538 99.9888 26.9083 99.9644 26.8688C99.94 26.8293 99.9051 26.7974 99.8635 26.7766L98.0017 26.0004L97.2254 24.1385C97.2047 24.0969 97.1728 24.0619 97.1332 24.0374C97.0937 24.013 97.0481 24 97.0017 24C96.9552 24 96.9096 24.013 96.8701 24.0374C96.8306 24.0619 96.7986 24.0969 96.7779 24.1385L96.0017 26.0004L94.1398 26.7766C94.0983 26.7974 94.0633 26.8293 94.0389 26.8688C94.0145 26.9083 94.0016 26.9538 94.0016 27.0002C94.0016 27.0466 94.0145 27.0921 94.0389 27.1316C94.0633 27.1711 94.0983 27.203 94.1398 27.2238ZM99.8635 36.7766L98.0017 36.0004L97.2254 34.1385C97.2047 34.0969 97.1728 34.0619 97.1332 34.0374C97.0937 34.013 97.0481 34 97.0017 34C96.9552 34 96.9096 34.013 96.8701 34.0374C96.8306 34.0619 96.7986 34.0969 96.7779 34.1385L96.0017 36.0004L94.1398 36.7766C94.0982 36.7973 94.0632 36.8293 94.0387 36.8688C94.0143 36.9083 94.0013 36.9539 94.0013 37.0004C94.0013 37.0468 94.0143 37.0924 94.0387 37.1319C94.0632 37.1715 94.0982 37.2034 94.1398 37.2241L96.0017 38.0004L96.7779 39.8622C96.7986 39.9038 96.8306 39.9388 96.8701 39.9633C96.9096 39.9878 96.9552 40.0007 97.0017 40.0007C97.0481 40.0007 97.0937 39.9878 97.1332 39.9633C97.1728 39.9388 97.2047 39.9038 97.2254 39.8622L98.0017 38.0004L99.8635 37.2241C99.9051 37.2034 99.9401 37.1715 99.9646 37.1319C99.9891 37.0924 100.002 37.0468 100.002 37.0004C100.002 36.9539 99.9891 36.9083 99.9646 36.8688C99.9401 36.8293 99.9051 36.7973 99.8635 36.7766ZM96.0017 31.9891C96.0016 31.8962 95.9757 31.8052 95.9269 31.7261C95.8782 31.647 95.8084 31.5831 95.7254 31.5413L92.2076 29.7791L90.4488 26.255C90.2788 25.9154 89.7242 25.9154 89.5545 26.255L87.7957 29.7791L84.2779 31.5413C84.1945 31.5827 84.1242 31.6465 84.0751 31.7257C84.026 31.8048 84 31.8961 84 31.9893C84 32.0824 84.026 32.1737 84.0751 32.2528C84.1242 32.332 84.1945 32.3959 84.2779 32.4372L87.7957 34.1994L89.5545 37.7235C89.596 37.8065 89.6598 37.8764 89.7388 37.9252C89.8178 37.974 89.9088 37.9998 90.0017 37.9998C90.0945 37.9998 90.1855 37.974 90.2645 37.9252C90.3435 37.8764 90.4073 37.8065 90.4488 37.7235L92.2076 34.1994L95.7254 32.4379C95.8085 32.396 95.8783 32.3319 95.9271 32.2526C95.9759 32.1734 96.0017 32.0822 96.0017 31.9891Z" fill="#037098"/>
<path d="M182.14 115.224L184.002 116L184.778 117.862C184.799 117.904 184.831 117.939 184.87 117.963C184.91 117.988 184.955 118.001 185.002 118.001C185.048 118.001 185.094 117.988 185.133 117.963C185.173 117.939 185.205 117.904 185.225 117.862L186.002 116L187.864 115.224C187.905 115.203 187.94 115.171 187.964 115.132C187.989 115.092 188.002 115.047 188.002 115C188.002 114.954 187.989 114.908 187.964 114.869C187.94 114.829 187.905 114.797 187.864 114.777L186.002 114L185.225 112.138C185.205 112.097 185.173 112.062 185.133 112.037C185.094 112.013 185.048 112 185.002 112C184.955 112 184.91 112.013 184.87 112.037C184.831 112.062 184.799 112.097 184.778 112.138L184.002 114L182.14 114.777C182.098 114.797 182.063 114.829 182.039 114.869C182.015 114.908 182.002 114.954 182.002 115C182.002 115.047 182.015 115.092 182.039 115.132C182.063 115.171 182.098 115.203 182.14 115.224ZM187.864 124.777L186.002 124L185.225 122.138C185.205 122.097 185.173 122.062 185.133 122.037C185.094 122.013 185.048 122 185.002 122C184.955 122 184.91 122.013 184.87 122.037C184.831 122.062 184.799 122.097 184.778 122.138L184.002 124L182.14 124.777C182.098 124.797 182.063 124.829 182.039 124.869C182.014 124.908 182.001 124.954 182.001 125C182.001 125.047 182.014 125.092 182.039 125.132C182.063 125.171 182.098 125.203 182.14 125.224L184.002 126L184.778 127.862C184.799 127.904 184.831 127.939 184.87 127.963C184.91 127.988 184.955 128.001 185.002 128.001C185.048 128.001 185.094 127.988 185.133 127.963C185.173 127.939 185.205 127.904 185.225 127.862L186.002 126L187.864 125.224C187.905 125.203 187.94 125.171 187.965 125.132C187.989 125.092 188.002 125.047 188.002 125C188.002 124.954 187.989 124.908 187.965 124.869C187.94 124.829 187.905 124.797 187.864 124.777ZM184.002 119.989C184.002 119.896 183.976 119.805 183.927 119.726C183.878 119.647 183.808 119.583 183.725 119.541L180.208 117.779L178.449 114.255C178.279 113.915 177.724 113.915 177.554 114.255L175.796 117.779L172.278 119.541C172.194 119.583 172.124 119.647 172.075 119.726C172.026 119.805 172 119.896 172 119.989C172 120.082 172.026 120.174 172.075 120.253C172.124 120.332 172.194 120.396 172.278 120.437L175.796 122.199L177.554 125.723C177.596 125.807 177.66 125.876 177.739 125.925C177.818 125.974 177.909 126 178.002 126C178.095 126 178.186 125.974 178.265 125.925C178.343 125.876 178.407 125.807 178.449 125.723L180.208 122.199L183.725 120.438C183.809 120.396 183.878 120.332 183.927 120.253C183.976 120.173 184.002 120.082 184.002 119.989Z" fill="#037098"/>
<path d="M251.277 6.44678L255 7.99971L256.553 11.723C256.594 11.8062 256.658 11.8762 256.737 11.9251C256.816 11.974 256.907 11.9999 257 11.9999C257.093 11.9999 257.184 11.974 257.263 11.9251C257.342 11.8762 257.406 11.8062 257.447 11.723L259 7.99971L262.723 6.44678C262.806 6.40525 262.876 6.34143 262.925 6.26245C262.974 6.18348 262.999 6.09248 262.999 5.99965C262.999 5.90681 262.974 5.81581 262.925 5.73684C262.876 5.65787 262.806 5.59404 262.723 5.55252L259 4.00021L257.447 0.276932C257.406 0.193739 257.342 0.123753 257.263 0.0748338C257.184 0.0259147 257.093 0 257 0C256.907 0 256.816 0.0259147 256.737 0.0748338C256.658 0.123753 256.594 0.193739 256.553 0.276932L255 4.00021L251.277 5.55252C251.194 5.59404 251.124 5.65787 251.075 5.73684C251.027 5.81581 251.001 5.90681 251.001 5.99965C251.001 6.09248 251.027 6.18348 251.075 6.26245C251.124 6.34143 251.194 6.40525 251.277 6.44678ZM262.723 25.55L259 23.9977L257.447 20.2744C257.406 20.1912 257.342 20.1212 257.263 20.0723C257.184 20.0234 257.093 19.9975 257 19.9975C256.907 19.9975 256.816 20.0234 256.737 20.0723C256.658 20.1212 256.594 20.1912 256.553 20.2744L255 23.9977L251.277 25.55C251.194 25.5915 251.124 25.6553 251.075 25.7343C251.026 25.8134 251 25.9045 251 25.9974C251 26.0904 251.026 26.1815 251.075 26.2605C251.124 26.3396 251.194 26.4034 251.277 26.4449L255 27.9972L256.553 31.7205C256.594 31.8037 256.658 31.8736 256.737 31.9226C256.816 31.9715 256.907 31.9974 257 31.9974C257.093 31.9974 257.184 31.9715 257.263 31.9226C257.342 31.8736 257.406 31.8037 257.447 31.7205L259 27.9972L262.723 26.4449C262.806 26.4034 262.876 26.3396 262.925 26.2605C262.974 26.1815 263 26.0904 263 25.9974C263 25.9045 262.974 25.8134 262.925 25.7343C262.876 25.6553 262.806 25.5915 262.723 25.55ZM255 15.9762C255 15.7904 254.948 15.6084 254.851 15.4502C254.753 15.2921 254.614 15.1642 254.448 15.0807L247.413 11.5568L243.896 4.50952C243.556 3.83023 242.447 3.83023 242.108 4.50952L238.59 11.5568L231.556 15.0807C231.389 15.1634 231.248 15.2911 231.15 15.4494C231.052 15.6077 231 15.7902 231 15.9765C231 16.1628 231.052 16.3453 231.15 16.5036C231.248 16.6619 231.389 16.7896 231.556 16.8723L238.59 20.3963L242.108 27.4435C242.191 27.6096 242.318 27.7492 242.476 27.8468C242.634 27.9444 242.816 27.9961 243.002 27.9961C243.187 27.9961 243.369 27.9444 243.527 27.8468C243.685 27.7492 243.813 27.6096 243.896 27.4435L247.413 20.3963L254.448 16.8736C254.614 16.7899 254.754 16.6616 254.851 16.5032C254.949 16.3447 255 16.1623 255 15.9762Z" fill="#DCDCF6"/>
<path d="M20.277 134.447L24.0003 136L25.5526 139.723C25.5941 139.806 25.6579 139.876 25.7369 139.925C25.816 139.974 25.9071 140 26 140C26.093 140 26.1841 139.974 26.2631 139.925C26.3422 139.876 26.406 139.806 26.4475 139.723L27.9998 136L31.7231 134.447C31.8061 134.405 31.8759 134.341 31.9247 134.262C31.9735 134.183 31.9994 134.092 31.9994 134C31.9994 133.907 31.9735 133.816 31.9247 133.737C31.8759 133.658 31.8061 133.594 31.7231 133.553L27.9998 132L26.4475 128.277C26.406 128.194 26.3422 128.124 26.2631 128.075C26.1841 128.026 26.093 128 26 128C25.9071 128 25.816 128.026 25.7369 128.075C25.6579 128.124 25.5941 128.194 25.5526 128.277L24.0003 132L20.277 133.553C20.194 133.594 20.1242 133.658 20.0754 133.737C20.0266 133.816 20.0007 133.907 20.0007 134C20.0007 134.092 20.0266 134.183 20.0754 134.262C20.1242 134.341 20.194 134.405 20.277 134.447ZM31.7231 153.55L27.9998 151.998L26.4475 148.274C26.406 148.191 26.3422 148.121 26.2631 148.072C26.1841 148.023 26.093 147.997 26 147.997C25.9071 147.997 25.816 148.023 25.7369 148.072C25.6579 148.121 25.5941 148.191 25.5526 148.274L24.0003 151.998L20.277 153.55C20.1938 153.591 20.1238 153.655 20.0749 153.734C20.026 153.813 20.0001 153.904 20.0001 153.997C20.0001 154.09 20.026 154.181 20.0749 154.261C20.1238 154.34 20.1938 154.403 20.277 154.445L24.0003 155.997L25.5526 159.72C25.5941 159.804 25.6579 159.874 25.7369 159.923C25.816 159.971 25.9071 159.997 26 159.997C26.093 159.997 26.1841 159.971 26.2631 159.923C26.3422 159.874 26.406 159.804 26.4475 159.72L27.9998 155.997L31.7231 154.445C31.8063 154.403 31.8762 154.34 31.9252 154.261C31.9741 154.181 32 154.09 32 153.997C32 153.904 31.9741 153.813 31.9252 153.734C31.8762 153.655 31.8063 153.591 31.7231 153.55ZM24.0003 143.976C24.0001 143.79 23.9484 143.608 23.8508 143.45C23.7533 143.292 23.6138 143.164 23.4479 143.081L16.4131 139.557L12.8961 132.51C12.5561 131.83 11.4469 131.83 11.1075 132.51L7.59049 139.557L0.55575 143.081C0.388869 143.163 0.248415 143.291 0.150222 143.449C0.052029 143.608 0 143.79 0 143.977C0 144.163 0.052029 144.345 0.150222 144.504C0.248415 144.662 0.388869 144.79 0.55575 144.872L7.59049 148.396L11.1075 155.444C11.1906 155.61 11.3182 155.749 11.4762 155.847C11.6341 155.944 11.8161 155.996 12.0018 155.996C12.1875 155.996 12.3695 155.944 12.5274 155.847C12.6854 155.749 12.813 155.61 12.8961 155.444L16.4131 148.396L23.4479 144.874C23.614 144.79 23.7537 144.662 23.8512 144.503C23.9488 144.345 24.0004 144.162 24.0003 143.976Z" fill="#037098"/>
<path d="M154 63.5H145.5L143.475 57.825C143.335 57.4367 143.079 57.101 142.741 56.8639C142.403 56.6267 142 56.4996 141.588 56.5H122.413C121.569 56.5 120.812 57.0313 120.531 57.825L118.5 63.5H110C107.237 63.5 105 65.7375 105 68.5V97C105 99.7625 107.237 102 110 102H154C156.763 102 159 99.7625 159 97V68.5C159 65.7375 156.763 63.5 154 63.5ZM154.5 97C154.5 97.275 154.275 97.5 154 97.5H110C109.725 97.5 109.5 97.275 109.5 97V68.5C109.5 68.225 109.725 68 110 68H121.669L122.737 65.0125L124.169 61H139.825L141.256 65.0125L142.325 68H154C154.275 68 154.5 68.225 154.5 68.5V97ZM132 72C126.475 72 122 76.475 122 82C122 87.525 126.475 92 132 92C137.525 92 142 87.525 142 82C142 76.475 137.525 72 132 72ZM132 88C128.688 88 126 85.3125 126 82C126 78.6875 128.688 76 132 76C135.312 76 138 78.6875 138 82C138 85.3125 135.312 88 132 88Z" fill="#037098"/>
</svg>
