<svg width="31" height="36" viewBox="0 0 31 36" fill="none" xmlns="http://www.w3.org/2000/svg">
<path d="M9.66671 16.6665C7.8986 16.6665 6.2029 15.9641 4.95266 14.7139C3.70242 13.4636 3.00004 11.7679 3.00004 9.99984V4.6665C3.00004 4.31288 3.14052 3.97374 3.39057 3.7237C3.64061 3.47365 3.97975 3.33317 4.33337 3.33317H5.66671C6.02033 3.33317 6.35947 3.19269 6.60952 2.94265C6.85956 2.6926 7.00004 2.35346 7.00004 1.99984C7.00004 1.64622 6.85956 1.30708 6.60952 1.05703C6.35947 0.80698 6.02033 0.666504 5.66671 0.666504H4.33337C3.27251 0.666504 2.25509 1.08793 1.50495 1.83808C0.754802 2.58822 0.333374 3.60564 0.333374 4.6665V9.99984C0.335088 11.5062 0.702403 12.9895 1.40377 14.3226C2.10514 15.6557 3.11961 16.7986 4.36004 17.6532C5.55181 18.7039 6.51832 19.9852 7.20122 21.4197C7.88412 22.8543 8.26926 24.4123 8.33337 25.9998C8.33337 28.4752 9.31671 30.8492 11.067 32.5995C12.8174 34.3498 15.1914 35.3332 17.6667 35.3332C20.1421 35.3332 22.516 34.3498 24.2664 32.5995C26.0167 30.8492 27 28.4752 27 25.9998V24.4798C28.2569 24.1553 29.3523 23.3835 30.0808 22.3092C30.8094 21.2348 31.1211 19.9316 30.9575 18.6438C30.794 17.3561 30.1664 16.1722 29.1924 15.3141C28.2183 14.456 26.9648 13.9825 25.6667 13.9825C24.3686 13.9825 23.1151 14.456 22.1411 15.3141C21.1671 16.1722 20.5394 17.3561 20.3759 18.6438C20.2123 19.9316 20.524 21.2348 21.2526 22.3092C21.9811 23.3835 23.0765 24.1553 24.3334 24.4798V25.9998C24.3334 27.7679 23.631 29.4636 22.3808 30.7139C21.1305 31.9641 19.4348 32.6665 17.6667 32.6665C15.8986 32.6665 14.2029 31.9641 12.9527 30.7139C11.7024 29.4636 11 27.7679 11 25.9998C11.0675 24.4104 11.4568 22.8511 12.1444 21.4164C12.8319 19.9818 13.8034 18.7015 15 17.6532C16.2355 16.7956 17.2448 15.6514 17.9415 14.3185C18.6381 12.9856 19.0013 11.5038 19 9.99984V4.6665C19 3.60564 18.5786 2.58822 17.8285 1.83808C17.0783 1.08793 16.0609 0.666504 15 0.666504H13.6667C13.3131 0.666504 12.9739 0.80698 12.7239 1.05703C12.4739 1.30708 12.3334 1.64622 12.3334 1.99984C12.3334 2.35346 12.4739 2.6926 12.7239 2.94265C12.9739 3.19269 13.3131 3.33317 13.6667 3.33317H15C15.3537 3.33317 15.6928 3.47365 15.9429 3.7237C16.1929 3.97374 16.3334 4.31288 16.3334 4.6665V9.99984C16.3334 10.8753 16.1609 11.7422 15.8259 12.5511C15.4909 13.3599 14.9998 14.0948 14.3808 14.7139C13.7617 15.3329 13.0268 15.824 12.2179 16.159C11.4091 16.4941 10.5422 16.6665 9.66671 16.6665ZM25.6667 21.9998C24.9595 21.9998 24.2812 21.7189 23.7811 21.2188C23.281 20.7187 23 20.0404 23 19.3332C23 18.6259 23.281 17.9477 23.7811 17.4476C24.2812 16.9475 24.9595 16.6665 25.6667 16.6665C26.374 16.6665 27.0522 16.9475 27.5523 17.4476C28.0524 17.9477 28.3334 18.6259 28.3334 19.3332C28.3334 20.0404 28.0524 20.7187 27.5523 21.2188C27.0522 21.7189 26.374 21.9998 25.6667 21.9998Z" fill="white"/>
</svg>
