<svg width="16" height="16" viewBox="0 0 16 16" fill="none" xmlns="http://www.w3.org/2000/svg">
<g clip-path="url(#clip0_183_1412)">
<path d="M3.66663 8.66683V14.6668H12.3333V8.66683L7.99996 4.3335L3.66663 8.66683Z" stroke="#DCDCF6" stroke-width="2" stroke-linejoin="round"/>
<path d="M1.19535 7.19552C1.13167 7.25701 1.08089 7.33058 1.04595 7.41191C1.01101 7.49325 0.992616 7.58073 0.991846 7.66925C0.991077 7.75777 1.00795 7.84556 1.04147 7.92749C1.07499 8.00942 1.12449 8.08385 1.18708 8.14645C1.24968 8.20904 1.32411 8.25854 1.40604 8.29206C1.48797 8.32558 1.57576 8.34245 1.66428 8.34168C1.7528 8.34091 1.84028 8.32252 1.92162 8.28758C2.00295 8.25265 2.07652 8.20186 2.13801 8.13818L1.19535 7.19552ZM8.00001 1.33352L8.47135 0.862183C8.34633 0.737202 8.17679 0.666992 8.00001 0.666992C7.82324 0.666992 7.6537 0.737202 7.52868 0.862183L8.00001 1.33352ZM13.862 8.13818C13.9235 8.20186 13.9971 8.25265 14.0784 8.28758C14.1597 8.32252 14.2472 8.34091 14.3357 8.34168C14.4243 8.34245 14.5121 8.32558 14.594 8.29206C14.6759 8.25854 14.7503 8.20904 14.8129 8.14645C14.8755 8.08385 14.925 8.00942 14.9586 7.92749C14.9921 7.84556 15.009 7.75777 15.0082 7.66925C15.0074 7.58073 14.989 7.49325 14.9541 7.41191C14.9191 7.33058 14.8684 7.25701 14.8047 7.19552L13.862 8.13818ZM2.13801 8.13818L8.47135 1.80485L7.52868 0.862183L1.19535 7.19552L2.13801 8.13818ZM7.52868 1.80485L13.862 8.13818L14.8047 7.19552L8.47135 0.862183L7.52868 1.80485Z" fill="#DCDCF6"/>
<path d="M6.33337 10.3337H9.66671M8.00004 8.66699V12.0003" stroke="#DCDCF6" stroke-width="2" stroke-linecap="round" stroke-linejoin="round"/>
</g>
<defs>
<clipPath id="clip0_183_1412">
<rect width="16" height="16" rx="4" fill="white"/>
</clipPath>
</defs>
</svg>
