<svg width="40" height="40" viewBox="0 0 40 40" fill="none" xmlns="http://www.w3.org/2000/svg">
<path d="M14.6667 18.667C12.8986 18.667 11.2029 17.9646 9.95266 16.7144C8.70242 15.4641 8.00004 13.7684 8.00004 12.0003V6.66699C8.00004 6.31337 8.14052 5.97423 8.39057 5.72418C8.64061 5.47413 8.97975 5.33366 9.33337 5.33366H10.6667C11.0203 5.33366 11.3595 5.19318 11.6095 4.94313C11.8596 4.69309 12 4.35395 12 4.00033C12 3.6467 11.8596 3.30756 11.6095 3.05752C11.3595 2.80747 11.0203 2.66699 10.6667 2.66699H9.33337C8.27251 2.66699 7.25509 3.08842 6.50495 3.83857C5.7548 4.58871 5.33337 5.60613 5.33337 6.66699V12.0003C5.33509 13.5066 5.7024 14.99 6.40377 16.3231C7.10514 17.6562 8.11961 18.7991 9.36004 19.6537C10.5518 20.7044 11.5183 21.9857 12.2012 23.4202C12.8841 24.8548 13.2693 26.4128 13.3334 28.0003C13.3334 30.4757 14.3167 32.8496 16.067 34.6C17.8174 36.3503 20.1914 37.3337 22.6667 37.3337C25.1421 37.3337 27.516 36.3503 29.2664 34.6C31.0167 32.8496 32 30.4757 32 28.0003V26.4803C33.2569 26.1558 34.3523 25.384 35.0808 24.3097C35.8094 23.2353 36.1211 21.9321 35.9575 20.6443C35.794 19.3566 35.1664 18.1727 34.1924 17.3146C33.2183 16.4564 31.9648 15.983 30.6667 15.983C29.3686 15.983 28.1151 16.4564 27.1411 17.3146C26.1671 18.1727 25.5394 19.3566 25.3759 20.6443C25.2123 21.9321 25.524 23.2353 26.2526 24.3097C26.9811 25.384 28.0765 26.1558 29.3334 26.4803V28.0003C29.3334 29.7684 28.631 31.4641 27.3808 32.7144C26.1305 33.9646 24.4348 34.667 22.6667 34.667C20.8986 34.667 19.2029 33.9646 17.9527 32.7144C16.7024 31.4641 16 29.7684 16 28.0003C16.0675 26.4109 16.4568 24.8516 17.1444 23.4169C17.8319 21.9823 18.8034 20.702 20 19.6537C21.2355 18.7961 22.2448 17.6519 22.9415 16.319C23.6381 14.9861 24.0013 13.5043 24 12.0003V6.66699C24 5.60613 23.5786 4.58871 22.8285 3.83857C22.0783 3.08842 21.0609 2.66699 20 2.66699H18.6667C18.3131 2.66699 17.9739 2.80747 17.7239 3.05752C17.4739 3.30756 17.3334 3.6467 17.3334 4.00033C17.3334 4.35395 17.4739 4.69309 17.7239 4.94313C17.9739 5.19318 18.3131 5.33366 18.6667 5.33366H20C20.3537 5.33366 20.6928 5.47413 20.9429 5.72418C21.1929 5.97423 21.3334 6.31337 21.3334 6.66699V12.0003C21.3334 12.8758 21.1609 13.7427 20.8259 14.5515C20.4909 15.3604 19.9998 16.0953 19.3808 16.7144C18.7617 17.3334 18.0268 17.8245 17.2179 18.1595C16.4091 18.4946 15.5422 18.667 14.6667 18.667ZM30.6667 24.0003C29.9595 24.0003 29.2812 23.7194 28.7811 23.2193C28.281 22.7192 28 22.0409 28 21.3337C28 20.6264 28.281 19.9481 28.7811 19.448C29.2812 18.9479 29.9595 18.667 30.6667 18.667C31.374 18.667 32.0522 18.9479 32.5523 19.448C33.0524 19.9481 33.3334 20.6264 33.3334 21.3337C33.3334 22.0409 33.0524 22.7192 32.5523 23.2193C32.0522 23.7194 31.374 24.0003 30.6667 24.0003Z" fill="white"/>
</svg>
