<svg width="64" height="64" viewBox="0 0 64 64" fill="none" xmlns="http://www.w3.org/2000/svg">
<circle cx="32" cy="32" r="31" stroke="white" stroke-width="2"/>
<path d="M40.8334 30.333C40.8334 35.333 36.6 38.833 32 38.833C27.4 38.833 23.1667 35.333 23.1667 30.333H20.3334C20.3334 36.0163 24.8667 40.7163 30.3334 41.533V46.9997H33.6667V41.533C39.1334 40.7163 43.6667 36.0163 43.6667 30.333M30 20.1663C30 19.0663 30.9 18.1663 32 18.1663C33.1 18.1663 34 19.0663 34 20.1663L33.9834 30.4997C33.9834 31.5997 33.1 32.4997 32 32.4997C30.9 32.4997 30 31.5997 30 30.4997M32 35.333C33.3261 35.333 34.5979 34.8062 35.5356 33.8685C36.4733 32.9309 37 31.6591 37 30.333V20.333C37 19.0069 36.4733 17.7352 35.5356 16.7975C34.5979 15.8598 33.3261 15.333 32 15.333C30.674 15.333 29.4022 15.8598 28.4645 16.7975C27.5268 17.7352 27 19.0069 27 20.333V30.333C27 31.6591 27.5268 32.9309 28.4645 33.8685C29.4022 34.8062 30.674 35.333 32 35.333Z" fill="white"/>
</svg>
