<svg width="12" height="12" viewBox="0 0 12 12" fill="none" xmlns="http://www.w3.org/2000/svg">
<path d="M6 8C6.53043 8 7.03914 7.78929 7.41421 7.41421C7.78929 7.03914 8 6.53043 8 6C8 5.46957 7.78929 4.96086 7.41421 4.58579C7.03914 4.21071 6.53043 4 6 4C5.46957 4 4.96086 4.21071 4.58579 4.58579C4.21071 4.96086 4 5.46957 4 6C4 6.53043 4.21071 7.03914 4.58579 7.41421C4.96086 7.78929 5.46957 8 6 8ZM5.5 2.03V0.5C5.5 0.367392 5.55268 0.240215 5.64645 0.146447C5.74021 0.0526784 5.86739 0 6 0C6.13261 0 6.25979 0.0526784 6.35355 0.146447C6.44732 0.240215 6.5 0.367392 6.5 0.5V2.03C7.38135 2.14134 8.20059 2.54276 8.82866 3.17101C9.45673 3.79926 9.85791 4.61862 9.969 5.5H11.5C11.6326 5.5 11.7598 5.55268 11.8536 5.64645C11.9473 5.74021 12 5.86739 12 6C12 6.13261 11.9473 6.25979 11.8536 6.35355C11.7598 6.44732 11.6326 6.5 11.5 6.5H9.969C9.85787 7.38153 9.45654 8.201 8.82827 8.82927C8.2 9.45754 7.38053 9.85887 6.499 9.97L6.5 10V11.5C6.5 11.6326 6.44732 11.7598 6.35355 11.8536C6.25979 11.9473 6.13261 12 6 12C5.86739 12 5.74021 11.9473 5.64645 11.8536C5.55268 11.7598 5.5 11.6326 5.5 11.5V9.97C4.61847 9.85887 3.799 9.45754 3.17073 8.82927C2.54246 8.201 2.14113 7.38153 2.03 6.5C2.02 6.5003 2.01 6.5003 2 6.5H0.5C0.367392 6.5 0.240215 6.44732 0.146447 6.35355C0.0526784 6.25979 0 6.13261 0 6C0 5.86739 0.0526784 5.74021 0.146447 5.64645C0.240215 5.55268 0.367392 5.5 0.5 5.5H2C2.01 5.4997 2.02 5.4997 2.03 5.5C2.14155 4.61884 2.54306 3.79982 3.17129 3.17195C3.79952 2.54408 4.61877 2.14304 5.5 2.032M3 6C3 6.79565 3.31607 7.55871 3.87868 8.12132C4.44129 8.68393 5.20435 9 6 9C6.79565 9 7.55871 8.68393 8.12132 8.12132C8.68393 7.55871 9 6.79565 9 6C9 5.20435 8.68393 4.44129 8.12132 3.87868C7.55871 3.31607 6.79565 3 6 3C5.20435 3 4.44129 3.31607 3.87868 3.87868C3.31607 4.44129 3 5.20435 3 6Z" fill="#037098"/>
</svg>
