<svg width="24" height="32" viewBox="0 0 24 32" fill="none" xmlns="http://www.w3.org/2000/svg">
<path d="M20.8334 15.3335C20.8334 20.3335 16.6 23.8335 12 23.8335C7.40004 23.8335 3.16671 20.3335 3.16671 15.3335H0.333374C0.333374 21.0168 4.86671 25.7168 10.3334 26.5335V32.0002H13.6667V26.5335C19.1334 25.7168 23.6667 21.0168 23.6667 15.3335M10 5.16683C10 4.06683 10.9 3.16683 12 3.16683C13.1 3.16683 14 4.06683 14 5.16683L13.9834 15.5002C13.9834 16.6002 13.1 17.5002 12 17.5002C10.9 17.5002 10 16.6002 10 15.5002M12 20.3335C13.3261 20.3335 14.5979 19.8067 15.5356 18.869C16.4733 17.9313 17 16.6596 17 15.3335V5.3335C17 4.00741 16.4733 2.73564 15.5356 1.79796C14.5979 0.86028 13.3261 0.333496 12 0.333496C10.674 0.333496 9.40219 0.86028 8.46451 1.79796C7.52682 2.73564 7.00004 4.00741 7.00004 5.3335V15.3335C7.00004 16.6596 7.52682 17.9313 8.46451 18.869C9.40219 19.8067 10.674 20.3335 12 20.3335Z" fill="white"/>
</svg>
