<svg width="16" height="16" viewBox="0 0 16 16" fill="none" xmlns="http://www.w3.org/2000/svg">
<path d="M10.1385 3.22339L12.0001 3.99985L12.7763 5.86149C12.797 5.90309 12.8289 5.93808 12.8685 5.96254C12.908 5.987 12.9535 5.99996 13 5.99996C13.0465 5.99996 13.0921 5.987 13.1316 5.96254C13.1711 5.93808 13.203 5.90309 13.2237 5.86149L13.9999 3.99985L15.8615 3.22339C15.903 3.20263 15.938 3.17071 15.9624 3.13123C15.9868 3.09174 15.9997 3.04624 15.9997 2.99982C15.9997 2.95341 15.9868 2.90791 15.9624 2.86842C15.938 2.82893 15.903 2.79702 15.8615 2.77626L13.9999 2.00011L13.2237 0.138466C13.203 0.0968694 13.1711 0.0618764 13.1316 0.0374169C13.0921 0.0129574 13.0465 0 13 0C12.9535 0 12.908 0.0129574 12.8685 0.0374169C12.8289 0.0618764 12.797 0.0968694 12.7763 0.138466L12.0001 2.00011L10.1385 2.77626C10.097 2.79702 10.0621 2.82893 10.0377 2.86842C10.0133 2.90791 10.0004 2.95341 10.0004 2.99982C10.0004 3.04624 10.0133 3.09174 10.0377 3.13123C10.0621 3.17071 10.097 3.20263 10.1385 3.22339ZM15.8615 12.775L13.9999 11.9988L13.2237 10.1372C13.203 10.0956 13.1711 10.0606 13.1316 10.0362C13.0921 10.0117 13.0465 9.99874 13 9.99874C12.9535 9.99874 12.908 10.0117 12.8685 10.0362C12.8289 10.0606 12.797 10.0956 12.7763 10.1372L12.0001 11.9988L10.1385 12.775C10.0969 12.7957 10.0619 12.8276 10.0375 12.8672C10.013 12.9067 10 12.9522 10 12.9987C10 13.0452 10.013 13.0907 10.0375 13.1303C10.0619 13.1698 10.0969 13.2017 10.1385 13.2224L12.0001 13.9986L12.7763 15.8602C12.797 15.9018 12.8289 15.9368 12.8685 15.9613C12.908 15.9857 12.9535 15.9987 13 15.9987C13.0465 15.9987 13.0921 15.9857 13.1316 15.9613C13.1711 15.9368 13.203 15.9018 13.2237 15.8602L13.9999 13.9986L15.8615 13.2224C15.9031 13.2017 15.9381 13.1698 15.9626 13.1303C15.987 13.0907 16 13.0452 16 12.9987C16 12.9522 15.987 12.9067 15.9626 12.8672C15.9381 12.8276 15.9031 12.7957 15.8615 12.775ZM12.0001 7.9881C12.0001 7.89521 11.9742 7.80418 11.9254 7.72512C11.8767 7.64607 11.8069 7.5821 11.7239 7.54034L8.20656 5.77838L6.44803 2.25476C6.27806 1.91512 5.72344 1.91512 5.55377 2.25476L3.79524 5.77838L0.277875 7.54034C0.194434 7.58171 0.124208 7.64556 0.0751111 7.7247C0.0260145 7.80384 0 7.89512 0 7.98826C0 8.08139 0.0260145 8.17267 0.0751111 8.25181C0.124208 8.33095 0.194434 8.3948 0.277875 8.43617L3.79524 10.1981L5.55377 13.7218C5.5953 13.8048 5.65912 13.8746 5.7381 13.9234C5.81707 13.9722 5.90807 13.9981 6.0009 13.9981C6.09374 13.9981 6.18474 13.9722 6.26371 13.9234C6.34268 13.8746 6.40651 13.8048 6.44803 13.7218L8.20656 10.1981L11.7239 8.43679C11.807 8.39493 11.8768 8.33081 11.9256 8.25159C11.9744 8.17236 12.0002 8.08114 12.0001 7.9881Z" fill="#DCDCF6"/>
</svg>
